<svg xmlns="http://www.w3.org/2000/svg" viewBox="0 0 228.92 289.22"><defs><style>.cls-1{fill:#d8b17b;}.cls-2{fill:#0766af;}.cls-3{fill:#eb3226;}.cls-4{fill:#fefefd;}</style></defs><title>croatia</title><g id="Layer_2" data-name="Layer 2"><g id="Layer_1-2" data-name="Layer 1"><path class="cls-1" d="M72.31.07c12-.15,24.05,0,36.08-.06,16.08,0,32.16-.08,48.24.05a28.08,28.08,0,0,0,2,9.13,49.1,49.1,0,0,0,12.46,18.4,63.88,63.88,0,0,0,16.82,11c12.85,5.89,27,7.94,41,8.75-1.14,7.33-2.92,14.54-4.57,21.76-8.11,33.88-18.76,67.23-33.11,99-9.06,20-19.75,39.33-33.15,56.75-2.8,3.57-5.69,7.06-8.73,10.43-.69.48-.2,1.24,0,1.87a33.38,33.38,0,0,1,2.73,12.92,120.63,120.63,0,0,0-11.35-16.43,87.89,87.89,0,0,0-6.3-6.65c-1.42-1.41-3.08-2.54-4.45-4a49.85,49.85,0,0,0,3.53-4,27.06,27.06,0,0,1,5.35,3.75,170.27,170.27,0,0,0,7.43-16,26.85,26.85,0,0,0,1.28-3.62c-4.09.59-8.17,1.2-12.27,1.68-.76,4.5-1.46,9-2.44,13.47-.52.13-1.18.05-1.51.56-6,6.67-11.53,14-14.83,22.4-1.15,2.66-1.85,5.48-2.77,8.22-.12.59-.75.76-1.22,1a33.37,33.37,0,0,1-12.24,2.41c.14-7,2.53-13.79,5.36-20.14a90.68,90.68,0,0,1,11.92-18.93c3.15.11,6.14,1.27,9.26,1.6.22-2.52.79-5,1.22-7.48,2.95-17.38,5.35-34.84,7.52-52.33,5.27-43.05,9.3-86.25,12.81-129.48.47-6.47,1.08-12.94,1.42-19.42q-35.33,0-70.65,0c.2,6,.88,11.87,1.26,17.81,3.4,41.83,7.25,83.64,12.26,125.32,2.27,18.82,4.78,37.61,7.91,56.31.5,3.1,1.2,6.18,1.55,9.3,4.18-.66,8.29-2,12.58-1.65-2.29,3.61-4.92,7-7,10.73-5.16,8.6-8.88,18.21-9.74,28.26-4.81.29-9.73.32-14.37-1.18a112.24,112.24,0,0,1,8.29-24.81c1.21-2.72,2.9-5.19,4.23-7.84-.78-4.71-1.78-9.4-2.47-14.14q-6.22-.73-12.42-1.68A169.27,169.27,0,0,0,90,222.6l2.18-1.24c-4.74,9.37-9.22,19.09-10.66,29.59-1.58-.22-3.16-.47-4.72-.8a39.72,39.72,0,0,1,3.26-14.28c-9.28-10.08-17.14-21.39-24.29-33.06a353.87,353.87,0,0,1-23.54-47.23A559.5,559.5,0,0,1,6.11,75.4C3.82,66.13,1.59,56.82,0,47.39c1.94-.25,3.89-.32,5.85-.4,12.93-1.1,26-3.66,37.63-9.51A56.92,56.92,0,0,0,64.29,20.33c4.27-5.93,7.6-12.87,8-20.26Z"/><path class="cls-2" d="M79.15,6.72q35.32,0,70.65,0c-.34,6.48-1,12.94-1.42,19.42-3.51,43.23-7.55,86.43-12.81,129.48-2.17,17.49-4.57,35-7.52,52.33-.43,2.49-1,5-1.22,7.48-3.12-.33-6.1-1.49-9.26-1.6-1,0-1.91,0-2.86,0-4.29-.37-8.4,1-12.58,1.65-.35-3.13-1-6.2-1.55-9.3-3.13-18.7-5.65-37.49-7.91-56.31-5-41.68-8.86-83.48-12.26-125.32C80,18.59,79.35,12.67,79.15,6.72Z"/><path class="cls-3" d="M73.23,19.07c.41,3.12.54,6.25.84,9.38.23,4.4.85,8.77,1,13.19-5-.05-9.94-.65-14.91-.92-2.35-.31-4.75-.27-7.07-.77a66.6,66.6,0,0,0,14.9-13.21,62.36,62.36,0,0,0,5.29-7.67Z"/><path class="cls-3" d="M155.66,18.93a59.34,59.34,0,0,0,20.43,21c-5.44.74-11,1-16.43,1.38a50.74,50.74,0,0,1-5.77.31c.44-7.58,1.14-15.15,1.77-22.71Z"/><path class="cls-1" d="M100,23.89c3.29,0,6.57,0,9.86,0,.16,5-.27,10,.24,14.95,2.91-.07,5.83,0,8.74,0,.06-5,0-9.91,0-14.86,3.35-.14,6.7-.09,10.05,0q0,21.94,0,43.88a13.9,13.9,0,0,1-3.69.14c-2.13,0-4.26.29-6.36-.18,0-5.61,0-11.23,0-16.84-3,0-5.92,0-8.88,0-.27,5.72.05,11.46-.17,17.18q-4.93.06-9.83-.28c0-14.65,0-29.29,0-43.93Z"/><path class="cls-4" d="M43.86,46.13c4.54,0,9,.8,13.58,1,6.07.58,12.17.82,18.23,1.42,1.07,11.79,2,23.58,3.23,35.36C69.19,83.2,59.5,82.15,49.83,81c-2.07-10.17-3.71-20.43-5.46-30.65a36.29,36.29,0,0,1-.5-4.26Z"/><path class="cls-4" d="M158.86,48.11c8.72-.63,17.44-1.24,26.12-2.19a19.46,19.46,0,0,1-.18,3C183,59.62,181.28,70.37,179.13,81c-9.66,1.15-19.35,2.11-29,2.94,1-11.8,2.13-23.59,3.17-35.39a52.63,52.63,0,0,1,5.6-.47Z"/><path class="cls-3" d="M35.38,48.16c.61-.18,1.23-.32,1.86-.46C38.68,57.14,40.32,66.55,42,76a33.73,33.73,0,0,1,.62,4.24C32.8,78.92,23,77.64,13.2,76,11.56,69.36,10,62.75,8.56,56.09c-.16-.85-.25-1.71-.34-2.56a116,116,0,0,0,27.16-5.37Z"/><path class="cls-3" d="M191.67,47.69c2.59.53,5,1.57,7.59,2.19a138,138,0,0,0,21.65,3.77c-1.64,7.46-3.34,14.9-5.18,22.32-9.74,1.68-19.56,2.87-29.34,4.27a23.28,23.28,0,0,1,.65-4.88c1.57-9.22,3.28-18.42,4.63-27.68Z"/><path class="cls-4" d="M15.22,83.13c9.57,1.4,19.12,2.87,28.73,3.94C45.61,95,47,103,48.74,110.86c.56,2.91,1.33,5.79,1.76,8.73-3.57-.18-7.09-.85-10.63-1.31-5-.77-10-1.51-15-2.36-2.85-8.29-5.24-16.72-7.7-25.13-.63-2.55-1.51-5-1.94-7.65Z"/><path class="cls-4" d="M184.94,87.09c9.6-1.13,19.17-2.49,28.71-4A52,52,0,0,1,212,89.87c-2.41,8.73-5,17.42-7.89,26-5.65.94-11.31,1.85-17,2.64-2.88.38-5.75,1-8.66,1,1.2-6.94,2.9-13.78,4.18-20.7.82-3.92,1.45-7.88,2.32-11.79Z"/><path class="cls-1" d="M100,84.87a75.4,75.4,0,0,1,9.55,0c2.62,7.07,5.56,14,8.21,21.08.53,1.42,1.1,2.82,1.76,4.18.22-4.14,0-8.3,0-12.45s0-8.56-.07-12.84a63,63,0,0,1,9.46,0q0,22,0,43.91c-3.17.07-6.34,0-9.51,0q-5.18-13-10.29-26.08c.4,3,.07,6,.18,9,.13,5.67,0,11.35.12,17-3.14,0-6.29,0-9.42,0,0-14.66,0-29.32,0-44Z"/><path class="cls-3" d="M51,88c5.31.35,10.58,1.13,15.89,1.55,4.21.49,8.45.71,12.66,1.21,1,10.76,2.18,21.5,3.29,32.25-2.86.08-5.68-.41-8.52-.59-5.53-.52-11.06-1.1-16.57-1.82C55.28,109.82,53.18,98.92,51,88Z"/><path class="cls-3" d="M169.84,88.8c2.69-.2,5.36-.68,8.07-.73-2.13,10.88-4.31,21.76-6.73,32.58-5.61.73-11.24,1.31-16.86,1.83-2.75.23-5.49.61-8.26.61,1.15-10.75,2.28-21.51,3.28-32.27,6.82-.75,13.68-1.23,20.5-2Z"/><path class="cls-3" d="M27.32,123.2c7.59,1,15.13,2.31,22.74,3.21a9.94,9.94,0,0,1,1.92.31c.41.36.4,1,.58,1.46,2.12,9.56,4.52,19.06,6.92,28.55-4.86-.5-9.66-1.51-14.48-2.32-2.16-.36-4.32-.75-6.45-1.26-4-9.87-7.91-19.81-11.22-29.94Z"/><path class="cls-3" d="M191.64,124.63c3.33-.43,6.62-1.14,10-1.43-2.49,7.74-5.46,15.31-8.38,22.9-.94,2.22-1.73,4.51-2.76,6.69-.22.58-.94.54-1.42.69-6.52,1.18-13,2.41-19.61,3.26,2.52-10,5-20,7.24-30,5-.72,10-1.33,15-2.11Z"/><path class="cls-4" d="M59.32,127.64c8.07.89,16.16,1.63,24.25,2.39,1.22,10,2.36,20.1,3.6,30.15-6.82-.66-13.64-1.39-20.42-2.4q-4-15-7.43-30.14Z"/><path class="cls-4" d="M145.34,130c8.05-.76,16.1-1.49,24.14-2.4-2,10.13-4.7,20.13-7.3,30.14-6.77,1-13.59,1.75-20.4,2.41q1.78-15.08,3.56-30.15Z"/><path class="cls-1" d="M104.84,148.16c2.74-3,7.08-3.95,11-3.53a12.48,12.48,0,0,1,7.43,3.22,14.55,14.55,0,0,1,3.86,10.65c-3,0-6,0-9,0-.37-1.19-.69-2.56-1.84-3.27-1.67-1.23-4.9-.78-5.28,1.56-.41,1.84,1.23,3.15,2.71,3.82,3.41,1.49,7.19,2.31,10.2,4.59A12.44,12.44,0,0,1,128.1,174c.27,4.28-.26,8.9-2.94,12.41-2.11,3-5.8,4.28-9.3,4.6-3.84.31-8-.72-10.79-3.51a16.92,16.92,0,0,1-4.29-11.63c3.09.07,6.18-.09,9.26.07.87,1.22.87,3.08,2.29,3.94,2,1.13,5.35.82,6-1.67.51-1.68-.69-3.15-2.12-3.86-3.82-1.91-8.28-2.73-11.56-5.62a12.38,12.38,0,0,1-3.26-8l-.23-.31c0-1.19,0-2.39.06-3.58.36-3.13,1.25-6.39,3.58-8.65Z"/><path class="cls-4" d="M41.88,160.82a28.39,28.39,0,0,1,4.77.63c4.86.81,9.73,1.68,14.63,2.29,1.26,3.66,2.14,7.43,3.3,11.13q2.89,9.8,6.23,19.47c-3.82-.43-7.53-1.5-11.3-2.21a8.14,8.14,0,0,1-2.22-.64A9.36,9.36,0,0,1,56,189.64q-7.73-14.08-14.15-28.83Z"/><path class="cls-4" d="M170.16,163.4c5.66-.67,11.22-2,16.89-2.6-3.31,7.73-7,15.27-10.87,22.74-1.57,2.71-2.81,5.63-4.64,8.18-4.48.75-8.86,2.07-13.37,2.64q4.94-14.64,9.06-29.54c.19-1.44,1.89-1.17,2.93-1.42Z"/><path class="cls-3" d="M68.61,164.81c6.5.89,13.06,1.42,19.56,2.33,1.22,10.24,2.73,20.45,4.37,30.62a67,67,0,0,1-7.45-.87,68.84,68.84,0,0,1-6.81-1.17c-2.21-6.83-4.66-13.59-6.63-20.5-1.07-3.46-2-7-3-10.41Z"/><path class="cls-3" d="M144.83,166.6c5.17-.47,10.32-1.17,15.48-1.78-3,10.43-6.12,20.8-9.78,31a135.34,135.34,0,0,1-14.13,1.93c1.52-9.18,2.77-18.39,4-27.61a12.2,12.2,0,0,1,.57-3,25.64,25.64,0,0,1,3.85-.5Z"/><path class="cls-3" d="M61.85,199.59c3.66.66,7.3,1.46,11,2.13.87,0,1,1,1.3,1.58a183.93,183.93,0,0,0,11.06,24.35l-1.53,2a194.34,194.34,0,0,1-21.79-30.06Z"/><path class="cls-3" d="M158.38,201.27c2.92-.5,5.79-1.22,8.72-1.68a204.13,204.13,0,0,1-21.71,30l-1.61-2a185.93,185.93,0,0,0,10.65-23.32,14.38,14.38,0,0,1,1.06-2.4,13.91,13.91,0,0,1,2.89-.65Z"/><path class="cls-1" d="M121,236a38,38,0,0,1,8.08-11.85,112.71,112.71,0,0,1,16.68,18.57,65.75,65.75,0,0,1,6.26,10.78,34.77,34.77,0,0,1-5.44,17.56,109.79,109.79,0,0,0-10.52-19.51,60.85,60.85,0,0,0-13.76-14.41c-.45-.36-.88-.75-1.31-1.13Z"/><path class="cls-1" d="M119.77,237.66a53.06,53.06,0,0,1,13,12.26,95.79,95.79,0,0,1,12.33,21.68c.29.65.54,1.45-.06,2a35.35,35.35,0,0,1-9.84,9.3,105.54,105.54,0,0,0-7.71-17.57A71.11,71.11,0,0,0,116,250.92a28.29,28.29,0,0,1,3.8-13.26Z"/><path class="cls-1" d="M76.79,252.36c3.74.79,7.5,1.52,11.29,2a64.09,64.09,0,0,0,26.28-1.93c4.25,2.32,7.15,6.42,9.31,10.64-6.8,3.36-14.4,4.8-21.93,5.21a86.77,86.77,0,0,1-13.68-.23,75.91,75.91,0,0,1-8-1,38.93,38.93,0,0,1-3.24-14.71Z"/><path class="cls-1" d="M113,268.65a52.75,52.75,0,0,0,11.56-4,46.66,46.66,0,0,1,5.25,8.65,19.89,19.89,0,0,1,1.75,4.2c-11,3.45-22.48,5.9-34.07,5.55-1.48-.13-3.12.23-4.47-.56a37.76,37.76,0,0,1-11.69-13.09c10.52,1.15,21.28,1.66,31.67-.73Z"/><path class="cls-1" d="M118.49,283.15a72.31,72.31,0,0,0,13.45-3.77c.63,1.51,1.24,3,1.74,4.61a38.26,38.26,0,0,1-19,5.22,35.09,35.09,0,0,1-16.83-4,197.27,197.27,0,0,0,20.64-2Z"/></g></g></svg>