<?xml version="1.0" encoding="UTF-8"?>
<!DOCTYPE svg PUBLIC "-//W3C//DTD SVG 1.0//EN" "http://www.w3.org/TR/2001/REC-SVG-20010904/DTD/svg10.dtd">
<!-- Creator: CorelDRAW 2017 -->
<svg xmlns="http://www.w3.org/2000/svg" xml:space="preserve" width="356px" height="200px" version="1.0" shape-rendering="geometricPrecision" text-rendering="geometricPrecision" image-rendering="optimizeQuality" fill-rule="evenodd" clip-rule="evenodd"
viewBox="0 0 35600 20025"
 xmlns:xlink="http://www.w3.org/1999/xlink">
 <g id="Layer_x0020_1">
  <metadata id="CorelCorpID_0Corel-Layer"/>
  <g id="_2238004588816">
   <path fill="#E6E7E8" d="M0 0l35600 0 0 20025 -35600 0 0 -20025z"/>
   <path fill="#373435" fill-opacity="0.031373" d="M2082 17547c68,104 112,203 155,312 32,64 49,183 199,183 44,0 107,-14 163,-45 63,-33 111,-83 136,-159l60 -202 146 -72 10 10c-20,77 -25,149 -25,206 0,170 146,234 262,234 68,0 129,-34 129,-95 0,-81 -34,-217 -78,-339 68,-68 136,-136 214,-191l12 6c34,144 53,287 53,381 0,93 -41,196 -75,264 -70,132 -194,238 -344,238 -114,0 -241,-58 -328,-163l-5 0c-82,101 -209,193 -412,193l-63 0c-10,134 -39,229 -83,314 -121,237 -480,404 -818,404 -470,0 -706,-272 -706,-633 0,-223 73,-431 185,-578l92 38c-70,134 -117,262 -117,385 0,338 275,499 592,499 294,0 658,-187 724,-404 -25,-237 -114,-348 -250,-565 41,-72 94,-144 160,-221l12 0zm5421 -1274c99,62 196,136 291,221 -53,74 -119,142 -201,202 -95,-77 -190,-143 -287,-213 66,-74 131,-146 197,-210zm51 926c-160,0 -291,105 -291,183 0,168 320,219 703,217 -48,-196 -216,-400 -412,-400zm-359 895c208,0 390,-6 529,-41 155,-39 286,-118 286,-171 0,-15 0,-31 -5,-46 -87,8 -187,8 -274,8 -282,0 -498,-64 -583,-222 -21,-44 -36,-93 -36,-149 0,-152 66,-303 182,-406 97,-85 204,-138 313,-138 197,0 354,158 464,408 60,136 101,293 101,491 0,132 -36,243 -118,326 -153,148 -435,204 -867,204l-196 0 0 0 -51 0c-107,0 -184,-19 -245,-66l-10 0c3,25 5,50 5,72 0,97 -32,221 -97,320 -192,287 -400,410 -580,410 -182,0 -405,-70 -606,-161l36 -70c65,27 155,46 279,46 325,0 752,-314 805,-619 -12,-25 -34,-58 -65,-93 -95,-113 -155,-208 -211,-307 48,-95 92,-171 133,-239l17 -2c139,282 265,445 546,445l44 0 0 0 204 0zm-1408 299c24,-130 26,-276 26,-413l0 -202c0,-377 -48,-926 -87,-1282 68,-75 163,-161 238,-219l22 6c51,450 63,972 63,1452 0,126 -5,250 -17,340 -7,114 -73,201 -214,332l-31 -14zm-1449 -596c7,177 94,318 398,318 189,0 349,-50 526,-135 32,-14 49,-33 49,-49 0,-111 -85,-258 -228,-392 -139,-126 -323,-237 -495,-311 -59,-25 -78,-52 -78,-77 0,-51 68,-158 124,-235l19 -2c197,103 417,256 580,427 148,157 240,316 240,489 0,128 -39,250 -102,361 -216,109 -446,192 -674,192 -277,0 -466,-130 -466,-436 0,-33 0,-84 12,-150l95 0zm-501 -503l172 278c63,103 122,215 122,392l0 227c0,183 -117,379 -306,573 -148,132 -279,188 -400,188 -180,0 -386,-56 -624,-159l27 -70c75,21 162,37 269,37 342,-2 692,-252 852,-557 19,-35 26,-68 26,-90 0,-36 -19,-75 -34,-110 -87,-165 -184,-315 -291,-453 56,-89 112,-174 173,-258l14 2z"/>
   <path fill="#373435" fill-opacity="0.078431" d="M21699 20025l-56 0 -449 0 -147 0 -103 0 -38 0 -36 0 -240 0 -22 0 -88 0 -28 0 -80 0 -189 0 -125 0 -74 0 -28 0 -72 0 -79 0 -32 0 -92 0 -31 0 -28 0 -2 0 -139 0 -85 0 -34 0 -20 0 0 0 -1 0 -54 0 -93 0 -35 0 -15 0 -6 0 -30 0 -116 0 -34 0 -155 0 -65 0 -46 0 -30 0 -17 0 -23 0 -33 0 -133 0 -54 0 -32 0 -24 0 -92 0 -106 0 -9 0 -177 0 -101 0 -87 0 -1 0 -173 0 -38 0 -125 0 -16 0 -114 0 -41 0 -29 0 0 0 -3 0 -264 0 -98 0 -554 0 -224 0 -167 0 -1 0 -333 0 -1 0 -56 0 -27 0 -325 0 -8 0 -11 0 -555 0 -21 0 -11 0 -14 0 -151 0 -398 0 -638 0 -33 0 -389 0 -29 0 -331 0 -303 0 -168 0 -168 0 -2 0 -54 0 -162 0 -49 0 -343 0 -231 0 -11 0 -314 0 -57 0 -283 0 -256 0 -117 0 -199 0 -569 0 -105 0 -129 0 -22 0 -354 0 -22 0 -159 0 -5 0 -7 0 -52 0 -278 0 -28 0 -24 0 -35 0 -281 0 -97 0 -23 0 -22 0 -37 0 -5 0 -68 0 -60 0 -47 0 -263 0 -166 0 -30 0 -33 0 -95 0 -38 0 -53 0 -94 0 -445 0 -299 0 -490 0 -95 0 -130 0 -239 0 -169 0 -372 0 -494 0 -214 0 -498 0 -21 0 -217 0 -889 0 -84 0 -96 0 -1002 0 -437 0 -389 0 -137 0 0 -298 0 -786 0 -214 0 -23 0 -246 0 -2265 0 -269 0 -4150 0 -3155 0 0 4811 -4668 2039 1177 2857 1648 1464 -1420 0 2265 4320 -2493 2040 -1177 -2040 1979 0 4167 -1438 1396 914 528 8873 -8608 -41 42 -38 45 -35 46 -31 48 -27 51 -22 53 -18 55 -14 58 -3 17 -1 16 -2 17 -1 16 0 17 -1 17 0 17 -1 16 0 4 0 4 0 3 0 4 0 4 0 3 0 4 0 3 1 129 0 130 0 129 0 73 706 -685 62 -51 71 -38 79 -25 84 -8 85 8 79 25 71 39 62 51 51 62 38 71 25 79 8 85 -9 84 -24 78 -39 71 -52 63 -721 699 7 0 145 0 145 0 146 0 145 0 145 0 146 0 145 0 146 0 145 0 145 0 146 0 145 0 0 42 0 41 0 41 0 41 0 41 0 41 0 42 0 41 -4322 4193 22 27 61 69 66 65 5 5 1935 -1877 74 -65 80 -57 84 -50 89 -43 94 -35 98 -29 54 -13 55 -10 55 -9 55 -6 55 -5 56 -3 56 -2 56 -1 142 0 142 0 143 0 142 1 142 0 143 0 142 0 142 0 143 0 142 0 143 0 40 0 2287 -2219 0 4 0 4 0 4 0 4 0 4 0 4 0 4 0 3 0 145 1 144 0 144 0 144 1 144 -1 144 -1 144 -2 144 -6 117 -14 114 -22 111 -30 110 -39 106 -48 104 -58 100 -66 97 -62 74 -66 68 -4370 4240 46 62 53 61 49 48 2000 -1940 3 0 4 0 3 0 4 0 3 0 3 0 3 0 4 0 200 0 200 0 200 0 200 0 200 0 200 0 200 0 200 0 101 0 3045 -2954 0 0 -3044 2954 98 0 200 0 200 0 200 0 200 0 201 1 200 0 200 0 33 0 33 0 34 0 33 0 34 -2 33 -2 33 -3 33 -4 96 -19 94 -24 90 -32 88 -37 84 -45 81 -50 78 -57 75 -63 -2728 2647 30 -10 78 -27 76 -29 75 -32 73 -35 71 -39 69 -42 66 -48 64 -52 46 -43 -2201 2136 0 72 0 162 0 162 0 162 0 162 0 163 0 162 0 126 314 -304 42 -29 44 -28 43 -26 45 -25 46 -22 47 -21 49 -17 50 -15 73 -14 68 -1 63 10 57 23 51 34 43 46 37 58 28 69 8 26 7 26 5 27 5 28 3 27 3 28 1 27 1 28 1 131 1 131 0 58 816 -791 -56 63 -50 68 -42 71 -35 75 -27 79 -21 84 -15 90 -3 41 474 -460 50 -44 56 -36 62 -26 68 -16 73 -6 52 1 49 7 48 13 44 18 43 24 40 29 37 35 34 39 31 46 27 46 22 48 19 50 15 51 12 52 8 53 7 54 1 17 1 17 1 17 1 17 1 17 0 10 608 -590 -8 8 -6 7 -5 8 -4 9 -2 9 -2 10 0 11 0 88 0 88 0 88 0 20 314 -304 8 -6 10 -7 53 -30 53 -25 55 -21 56 -15 57 -11 58 -6 59 -1 61 4 54 10 52 17 48 24 44 31 39 36 33 42 26 47 19 52 6 23 4 22 4 23 3 23 2 24 1 23 1 23 0 23 1 138 0 137 0 138 0 137 0 138 0 137 0 138 0 137 0 7 0 6 0 7 0 6 0 7 0 7 0 6 0 7 37 0 37 0 36 0 36 0 35 0 36 0 36 0 36 0 -3858 3743 -289 0 -54 0 -775 0 -293 0 -48 0 -19 0 -211 0 -429 0 -154 0 -4 0 -165 0 -92 0 -82 0 -4 0 -285 0 0 0 -9 0 -37 0 -103 0 -492 0 -61 0 -123 0 -106 0 -53 0 -236 0 -23 0 -154 0 -331 0 -9 0 -37 0 -292 0 -3 0 -46 0 -211 0z"/>
   <g>
    <g>
     <g>
      <path fill="#FF5757" d="M4811 11257l2039 -1160 1928 1113 2392 -1381 2393 1381 1928 -1113 2040 1160 -3958 2260 -2402 -1387 -2402 1387 -3958 -2260z"/>
      <path fill="#FF2E2E" d="M11171 7621l-4321 -2493 0 4969 1928 1113 -2001 1155 -139 -78 -23 0 -1804 -1030 0 -7305 1961 -1128 4399 2532 0 2265z"/>
      <path fill="#FF2E2E" d="M11171 7621l4320 -2493 0 4969 -1928 1113 2001 1155 140 -78 23 0 1804 -1030 0 -7305 -1961 -1128 -4399 2532 0 2265z"/>
      <path fill="#FF5757" d="M6772 2824l-1961 1127 2039 1177 4321 2493 4320 -2493 2040 -1177 -1961 -1127 -4399 2532 -4399 -2532z"/>
     </g>
     <path fill="#606062" fill-rule="nonzero" d="M6489 16904l0 -2664 522 0 1096 1785 0 -1785 499 0 0 2664 -539 0 -1079 -1751 0 1751 -499 0zm2701 0l0 -2642 540 0 0 2192 1335 0 0 450 -1875 0zm2581 0l0 -2214 -789 0 0 -450 2113 0 0 450 -785 0 0 2214 -539 0zm1680 0l0 -2664 540 0 0 1180 1087 -1180 723 0 -1005 1037 1057 1627 -696 0 -733 -1251 -433 445 0 806 -540 0z"/>
    </g>
    <path fill="#004278" fill-rule="nonzero" d="M21123 7824c0,-107 0,-214 0,-321 1,-9 3,-20 4,-31 5,-188 22,-374 53,-560 32,-197 81,-389 154,-574 101,-250 240,-473 444,-650 156,-135 335,-229 535,-279 126,-32 254,-38 383,-37 1071,3 2142,1 3213,1 9,0 16,-1 24,-1 0,-111 0,-219 0,-330 -776,0 -1550,0 -2326,0 0,-12 0,-23 0,-34 -1,-345 -1,-690 -2,-1035 0,-9 -1,-19 0,-29 2,-44 1,-89 9,-133 30,-158 112,-287 226,-398 131,-128 287,-215 455,-283 253,-102 516,-157 785,-192 200,-26 400,-39 601,-44 7,0 14,-2 21,-3 123,0 246,0 368,0 10,1 19,3 28,3 225,6 449,24 672,59 217,33 430,84 635,164 205,79 395,184 552,341 133,132 227,287 269,470 20,86 18,172 18,259 -2,701 -1,1402 -1,2103 0,113 -13,225 -39,336 -67,286 -220,513 -468,672 -243,155 -512,225 -798,227 -759,3 -1518,1 -2277,1 -150,0 -297,12 -442,49 -267,68 -489,206 -651,432 -187,260 -267,556 -270,873 -3,374 -1,748 -1,1122 0,9 0,17 0,28 -11,0 -20,0 -29,0 -266,0 -533,1 -800,-1 -52,0 -104,-6 -155,-16 -212,-42 -395,-140 -553,-287 -184,-169 -309,-377 -403,-606 -77,-189 -128,-386 -164,-586 -32,-184 -52,-368 -61,-553 -3,-52 -6,-105 -9,-158l0 1zm3485 -4197l0 0c-231,0 -418,187 -418,417 0,232 186,420 417,421 231,0 419,-188 420,-418 0,-232 -187,-420 -419,-420l0 0z"/>
    <path fill="#FFB300" fill-rule="nonzero" d="M30692 7010c0,433 0,865 0,1297 -6,37 -12,73 -18,110 -31,188 -76,372 -144,551 -96,251 -231,476 -431,659 -196,177 -425,286 -686,327 -88,13 -178,11 -266,11 -1067,-2 -2134,-1 -3201,-1 -9,0 -18,0 -27,0 0,111 0,219 0,330 775,0 1548,0 2325,0 0,10 0,19 0,27 1,368 3,735 4,1103 0,39 -4,78 -13,116 -37,171 -133,307 -262,420 -166,146 -363,236 -572,304 -286,94 -582,139 -882,161 -175,13 -351,17 -528,21 -224,4 -448,-5 -670,-30 -136,-16 -271,-37 -404,-62 -227,-42 -447,-110 -655,-215 -196,-100 -368,-228 -495,-410 -86,-127 -143,-265 -156,-418 -5,-56 -2,-113 -2,-169 0,-686 0,-1372 0,-2058 0,-121 9,-242 36,-360 64,-287 214,-517 462,-679 245,-160 519,-232 809,-233 761,-3 1523,-1 2283,-1 152,0 304,-13 451,-53 252,-68 461,-199 619,-407 191,-254 277,-546 283,-859 7,-384 1,-769 2,-1153 0,-10 0,-20 0,-31 13,0 21,0 31,0 257,0 512,1 768,-1 166,0 321,40 468,115 220,110 386,279 515,486 190,301 282,635 337,983 7,40 13,80 19,119l0 0zm-3450 4699l0 0c232,1 420,-185 421,-416 1,-230 -187,-420 -416,-421 -233,0 -421,185 -422,417 0,233 185,420 417,420z"/>
    <path fill="#4B4B4D" fill-rule="nonzero" d="M21025 14793c108,-109 234,-187 380,-235 185,-59 374,-84 567,-56 182,27 315,129 413,283 90,143 136,300 153,466 22,194 18,387 -49,573 -80,227 -216,403 -458,473 -185,53 -365,31 -540,-45 -56,-25 -110,-54 -170,-83 0,344 0,684 0,1032 -103,-38 -199,-74 -296,-109 0,-766 0,-1532 0,-2299l0 0zm1190 620l0 0c-6,-156 -13,-314 -71,-464 -52,-135 -138,-237 -289,-258 -182,-25 -354,19 -510,116 -14,8 -24,31 -24,48 -1,359 -1,720 0,1081 0,13 11,35 24,40 94,44 187,96 286,124 248,68 450,-48 530,-292 42,-128 50,-260 54,-395l0 0z"/>
    <path fill="#4B4B4D" fill-rule="nonzero" d="M26111 13497c0,406 0,812 0,1223 53,-31 100,-61 149,-86 167,-85 343,-127 531,-108 217,22 393,181 437,397 10,52 16,105 16,158 1,388 0,775 0,1163 0,11 -1,23 -1,37 -96,0 -190,0 -290,0 0,-17 0,-33 0,-51 0,-350 2,-701 -2,-1051 0,-73 -11,-149 -33,-217 -65,-199 -219,-278 -420,-225 -136,35 -253,104 -366,183 -13,10 -20,35 -20,52 -1,418 -1,835 -1,1251 0,19 0,36 0,57 -97,0 -192,0 -293,0 0,-15 0,-31 0,-47 0,-865 0,-1730 -1,-2595 0,-37 9,-54 47,-65 78,-21 153,-50 229,-76 6,0 12,0 18,0l0 0z"/>
    <path fill="#4B4B4D" fill-rule="nonzero" d="M24043 14536c99,0 192,0 293,0 0,18 0,33 0,48 0,510 0,1018 -1,1528 0,173 -10,347 -43,520 -36,187 -144,317 -306,405 -178,96 -370,143 -572,153 -28,2 -39,-7 -45,-34 -11,-47 -24,-93 -38,-146 69,-12 134,-22 201,-34 121,-20 239,-51 341,-125 80,-57 134,-132 155,-229 30,-144 31,-288 32,-440 -45,17 -83,33 -123,46 -190,67 -386,100 -587,82 -220,-18 -428,-196 -473,-406 -9,-38 -11,-79 -11,-119 -1,-384 0,-768 -1,-1153 0,-31 7,-48 39,-57 83,-26 164,-55 253,-86 0,22 0,39 0,56 0,382 0,763 1,1145 0,95 13,189 74,267 82,106 195,150 323,158 175,12 327,-52 469,-145 12,-8 18,-32 18,-48 1,-444 1,-888 1,-1331 0,-17 0,-34 0,-55l0 0z"/>
    <path fill="#4B4B4D" fill-rule="nonzero" d="M27512 15435c0,-280 57,-487 201,-664 144,-179 330,-271 560,-280 231,-10 434,58 596,228 147,154 225,340 241,551 19,227 -11,446 -123,648 -110,199 -270,335 -497,385 -414,87 -774,-117 -914,-523 -45,-130 -65,-264 -64,-345l0 0zm1286 -41l0 0c-3,-45 -4,-92 -7,-137 -14,-145 -52,-282 -141,-400 -87,-113 -207,-169 -347,-166 -203,3 -348,116 -418,310 -43,115 -54,235 -56,356 -1,159 14,316 73,465 98,249 274,353 520,302 170,-36 261,-156 315,-311 47,-135 57,-277 61,-419l0 0z"/>
    <path fill="#4B4B4D" fill-rule="nonzero" d="M30787 16282c-97,0 -189,0 -289,0 0,-18 0,-35 0,-53 0,-366 1,-733 -1,-1100 0,-61 -5,-125 -21,-184 -40,-144 -167,-243 -315,-259 -163,-18 -313,19 -452,105 -28,17 -40,36 -40,70 1,456 0,911 0,1365 0,19 0,36 0,55 -97,0 -191,0 -292,0 0,-15 0,-31 0,-47 0,-470 1,-940 0,-1410 -1,-31 10,-50 36,-69 202,-146 426,-238 676,-260 197,-18 388,1 549,133 95,78 151,177 151,303 0,444 0,886 0,1330 0,6 -1,12 -2,21z"/>
    <path fill="#4B4B4D" fill-rule="nonzero" d="M25474 16308c-139,8 -269,5 -391,-56 -137,-69 -218,-179 -223,-331 -7,-227 -4,-453 -6,-680 0,-157 0,-315 1,-473 1,-45 -12,-57 -54,-53 -47,3 -94,0 -143,0 0,-61 0,-118 0,-181 51,0 100,-2 149,1 37,2 49,-9 48,-47 -1,-134 0,-268 -1,-403 0,-30 9,-45 37,-54 84,-28 167,-58 255,-89 0,122 0,238 0,355 0,65 1,130 -1,195 -1,33 9,44 42,43 93,-3 186,-1 283,-1 0,60 0,118 0,181 -93,0 -183,2 -275,0 -38,-2 -51,6 -50,48 1,361 0,721 1,1081 0,37 3,75 10,110 27,121 102,181 246,196 72,9 72,9 72,79 0,25 0,50 0,79z"/>
   </g>
  </g>
 </g>
</svg>
